
<svg width="32" height="32" viewBox="0 0 32 32" fill="none" xmlns="http://www.w3.org/2000/svg">
  <g clip-path="url(#clip0_1_2)">
    <path d="M28 0H4C1.79086 0 0 1.79086 0 4V28C0 30.2091 1.79086 32 4 32H28C30.2091 32 32 30.2091 32 28V4C32 1.79086 30.2091 0 28 0Z" fill="white"/>
    <path d="M20 6C15.4 6 6 12 6 12V24C6 24 15.4 18 20 18C24.6 18 26 20.5 26 24V6C26 6 24.6 6 20 6Z" fill="#1e88e5"/>
    <path d="M20 26C15.4 26 6 20 6 20V20C6 20 15.4 26 20 26C24.6 26 26 23.5 26 20V20C26 23.5 24.6 26 20 26Z" fill="#121212"/>
  </g>
  <defs>
    <clipPath id="clip0_1_2">
      <rect width="32" height="32" rx="6" fill="white"/>
    </clipPath>
  </defs>
</svg>
