
<svg xmlns="http://www.w3.org/2000/svg" width="32" height="32" viewBox="0 0 32 32" fill="none">
  <circle cx="16" cy="16" r="16" fill="#16a34a"/>
  <path d="M10.667 14.667C10.667 13.194 13.791 12 17.667 12C21.542 12 24.667 13.194 24.667 14.667M10.667 14.667C10.667 16.139 13.791 17.333 17.667 17.333C21.542 17.333 24.667 16.139 24.667 14.667M10.667 14.667V19.333M24.667 14.667V19.333M10.667 19.333C10.667 20.806 13.791 22 17.667 22C21.542 22 24.667 20.806 24.667 19.333M10.667 19.333V24M24.667 19.333V24M10.667 24C10.667 25.473 13.791 26.667 17.667 26.667C21.542 26.667 24.667 25.473 24.667 24M10.667 24C10.667 22.527 13.791 21.333 17.667 21.333C21.542 21.333 24.667 22.527 24.667 24" stroke="white" stroke-width="2" stroke-linecap="round" stroke-linejoin="round"/>
</svg>
