
<svg width="32" height="32" viewBox="0 0 32 32" fill="none" xmlns="http://www.w3.org/2000/svg">
  <rect width="32" height="32" rx="6" fill="url(#paint0_linear)" />
  <path d="M12.92 21V11.68H15.176V21H12.92ZM17.0384 21V11.68H21.2224C21.9744 11.68 22.6064 11.8213 23.1184 12.104C23.6304 12.3867 24.0144 12.776 24.2704 13.272C24.5264 13.768 24.6544 14.336 24.6544 14.976C24.6544 15.616 24.5264 16.184 24.2704 16.68C24.0144 17.176 23.6304 17.5653 23.1184 17.848C22.6064 18.1307 21.9744 18.272 21.2224 18.272H19.2944V21H17.0384ZM19.2944 16.472H21.0384C21.4224 16.472 21.7104 16.3867 21.9024 16.216C22.0944 16.0453 22.1904 15.7787 22.1904 15.416V14.536C22.1904 14.1733 22.0944 13.9067 21.9024 13.736C21.7104 13.5653 21.4224 13.48 21.0384 13.48H19.2944V16.472Z" fill="white"/>
  <defs>
    <linearGradient id="paint0_linear" x1="0" y1="0" x2="32" y2="32" gradientUnits="userSpaceOnUse">
      <stop stop-color="#4ADE80"/>
      <stop offset="1" stop-color="#3B82F6"/>
    </linearGradient>
  </defs>
</svg>
